<svg width="48" height="48" viewBox="0 0 48 48" fill="none" xmlns="http://www.w3.org/2000/svg">
<path d="M31.1207 8.832C31.2353 8.53474 31.2271 8.20415 31.0979 7.91294C30.9687 7.62173 30.7291 7.39377 30.4319 7.2792C30.1346 7.16462 29.804 7.17282 29.5128 7.302C29.2216 7.43117 28.9937 7.67074 28.8791 7.968L16.8791 39.168C16.8224 39.3152 16.7952 39.4721 16.7991 39.6298C16.803 39.7875 16.8379 39.9429 16.9019 40.0871C16.9658 40.2312 17.0576 40.3614 17.1719 40.4702C17.2861 40.5789 17.4207 40.6641 17.5679 40.7208C17.7151 40.7775 17.872 40.8047 18.0297 40.8008C18.1874 40.7969 18.3427 40.762 18.4869 40.698C18.6311 40.634 18.7613 40.5423 18.87 40.428C18.9788 40.3138 19.064 40.1792 19.1207 40.032L31.1207 8.832ZM13.9799 14.688C14.1 14.7905 14.1987 14.9156 14.2704 15.0563C14.3421 15.197 14.3853 15.3504 14.3975 15.5078C14.4098 15.6652 14.3909 15.8235 14.3419 15.9736C14.2928 16.1236 14.2147 16.2626 14.1119 16.3824L7.58148 24L14.1095 31.62C14.3024 31.8632 14.3935 32.1717 14.3637 32.4807C14.334 32.7897 14.1856 33.0752 13.9498 33.2771C13.714 33.479 13.4092 33.5817 13.0993 33.5636C12.7894 33.5455 12.4985 33.408 12.2879 33.18L5.08788 24.78C4.90197 24.5626 4.7998 24.286 4.7998 24C4.7998 23.714 4.90197 23.4374 5.08788 23.22L12.2879 14.82C12.4951 14.5785 12.7897 14.4291 13.107 14.4048C13.4243 14.3805 13.7383 14.4808 13.9799 14.688ZM34.0199 34.5144C33.9001 34.412 33.8017 34.287 33.7302 34.1465C33.6588 34.006 33.6157 33.8529 33.6034 33.6957C33.5912 33.5386 33.61 33.3806 33.6588 33.2308C33.7076 33.0809 33.7854 32.9422 33.8879 32.8224L40.4207 25.2024L33.8879 17.5848C33.7853 17.465 33.7073 17.3262 33.6583 17.1763C33.6094 17.0264 33.5905 16.8683 33.6026 16.7111C33.6148 16.5539 33.6577 16.4006 33.7291 16.26C33.8005 16.1194 33.8989 15.9942 34.0187 15.8916C34.1385 15.789 34.2772 15.711 34.4272 15.6621C34.5771 15.6131 34.7351 15.5942 34.8924 15.6063C35.0496 15.6185 35.2029 15.6615 35.3435 15.7329C35.4841 15.8042 35.6093 15.9026 35.7119 16.0224L42.9119 24.4224C43.0978 24.6398 43.2 24.9164 43.2 25.2024C43.2 25.4884 43.0978 25.765 42.9119 25.9824L35.7119 34.3824C35.6095 34.5022 35.4844 34.6006 35.344 34.672C35.2035 34.7435 35.0503 34.7866 34.8932 34.7988C34.7361 34.8111 34.5781 34.7923 34.4283 34.7435C34.2784 34.6947 34.1396 34.6168 34.0199 34.5144Z" fill="white"/>
</svg>
