<svg width="48" height="48" viewBox="0 0 48 48" fill="none" xmlns="http://www.w3.org/2000/svg">
<path d="M14 30C12.4087 30 10.8826 30.6321 9.75736 31.7574C8.63214 32.8826 8 34.4087 8 36C8 37.5913 8.63214 39.1174 9.75736 40.2426C10.8826 41.3679 12.4087 42 14 42C15.5913 42 17.1174 41.3679 18.2426 40.2426C19.3679 39.1174 20 37.5913 20 36C20 34.4087 19.3679 32.8826 18.2426 31.7574C17.1174 30.6321 15.5913 30 14 30ZM34 30C32.4087 30 30.8826 30.6321 29.7574 31.7574C28.6321 32.8826 28 34.4087 28 36C28 37.5913 28.6321 39.1174 29.7574 40.2426C30.8826 41.3679 32.4087 42 34 42C35.5913 42 37.1174 41.3679 38.2426 40.2426C39.3679 39.1174 40 37.5913 40 36C40 34.4087 39.3679 32.8826 38.2426 31.7574C37.1174 30.6321 35.5913 30 34 30ZM28 34H20H28ZM44 26C39.086 23.546 31.946 22 24 22C16.054 22 8.914 23.546 4 26" fill="white"/>
<path d="M28 34H20M44 26C39.086 23.546 31.946 22 24 22C16.054 22 8.914 23.546 4 26M14 30C12.4087 30 10.8826 30.6321 9.75736 31.7574C8.63214 32.8826 8 34.4087 8 36C8 37.5913 8.63214 39.1174 9.75736 40.2426C10.8826 41.3679 12.4087 42 14 42C15.5913 42 17.1174 41.3679 18.2426 40.2426C19.3679 39.1174 20 37.5913 20 36C20 34.4087 19.3679 32.8826 18.2426 31.7574C17.1174 30.6321 15.5913 30 14 30ZM34 30C32.4087 30 30.8826 30.6321 29.7574 31.7574C28.6321 32.8826 28 34.4087 28 36C28 37.5913 28.6321 39.1174 29.7574 40.2426C30.8826 41.3679 32.4087 42 34 42C35.5913 42 37.1174 41.3679 38.2426 40.2426C39.3679 39.1174 40 37.5913 40 36C40 34.4087 39.3679 32.8826 38.2426 31.7574C37.1174 30.6321 35.5913 30 34 30Z" stroke="white" stroke-linecap="round" stroke-linejoin="round"/>
<path d="M38 23L35.884 9.424C35.454 6.656 32.446 5.156 30.018 6.498L28.788 7.178C27.3227 7.98979 25.6751 8.41569 24 8.41569C22.3249 8.41569 20.6773 7.98979 19.212 7.178L17.982 6.498C15.554 5.158 12.546 6.658 12.116 9.424L10 23" stroke="white" stroke-linecap="round" stroke-linejoin="round"/>
</svg>
