<svg width="48" height="48" viewBox="0 0 48 48" fill="none" xmlns="http://www.w3.org/2000/svg">
<path d="M3 14.25C3 12.4598 3.71116 10.7429 4.97703 9.47703C6.2429 8.21116 7.95979 7.5 9.75 7.5H38.25C40.0402 7.5 41.7571 8.21116 43.023 9.47703C44.2888 10.7429 45 12.4598 45 14.25V33.75C45 35.5402 44.2888 37.2571 43.023 38.523C41.7571 39.7888 40.0402 40.5 38.25 40.5H9.75C7.95979 40.5 6.2429 39.7888 4.97703 38.523C3.71116 37.2571 3 35.5402 3 33.75V14.25ZM9.75 10.5C8.75544 10.5 7.80161 10.8951 7.09835 11.5983C6.39509 12.3016 6 13.2554 6 14.25V16.5H42V14.25C42 13.2554 41.6049 12.3016 40.9016 11.5983C40.1984 10.8951 39.2446 10.5 38.25 10.5H9.75ZM6 33.75C6 34.7446 6.39509 35.6984 7.09835 36.4016C7.80161 37.1049 8.75544 37.5 9.75 37.5H38.25C39.2446 37.5 40.1984 37.1049 40.9016 36.4016C41.6049 35.6984 42 34.7446 42 33.75V19.5H6V33.75ZM31.5 28.5H36C36.3978 28.5 36.7794 28.658 37.0607 28.9393C37.342 29.2206 37.5 29.6022 37.5 30C37.5 30.3978 37.342 30.7794 37.0607 31.0607C36.7794 31.342 36.3978 31.5 36 31.5H31.5C31.1022 31.5 30.7206 31.342 30.4393 31.0607C30.158 30.7794 30 30.3978 30 30C30 29.6022 30.158 29.2206 30.4393 28.9393C30.7206 28.658 31.1022 28.5 31.5 28.5Z" fill="white"/>
</svg>
